# xmcd
#
# Track frame offsets: 
#        150
#        10146
#        24664
#
# Disc length: 453 seconds
#
# Revision: 0
# Processed by: cddbd v1.5.2PL0 Copyright (c) Steve Scherf et al.
# Submitted via: ExactAudioCopyFreeDBPlugin 1.0
#
DISCID=1801c303
DTITLE=Kenny Loggins - Frosty the Snowman
DYEAR=2013
DGENRE=
TTITLE0=Frosty the Snowman
TTITLE1=Fishin' Blues
TTITLE2=Cyndi
EXTD=
EXTT0=
EXTT1=
EXTT2=
PLAYORDER=
